# xmcd
# 
# Track frame offsets:
#     150
#     13465
#     25947
#     38332
#     49680
#     63545
#     76577
#     88895
#     101720
#     116285
#     134250
#     148800
#     160965
#     174220
#     186762
#     198572
#     213455
#     226487
#     247672
#     258000
#     270020
#     288657
#     311625
# 
# Disc length: 4321
# 
# Revision: 8
# Processed by: cddbd v1.5.2PL0 Copyright (c) Steve Scherf et al.
# Submitted via: fre:ac v1.0.31
# 
DISCID=3710df17
DTITLE=Muddy Waters - The Chess Box Disc 3 1960-1972
DYEAR=1989
DGENRE=Blues
TTITLE0=I Feel So Good
TTITLE1=You Shook Me (live)
TTITLE2=You Need Love
TTITLE3=Twenty Four Hours
TTITLE4=Elevate Me Mama (alt. take)
TTITLE5=So Glad I'm Living
TTITLE6=My Love Strikes Like Lightning
TTITLE7=You Don't Have To Go (alt. take)
TTITLE8=Things That I Used To Do
TTITLE9=My Home Is In The Delta
TTITLE10=Good Morning Little Schoolgirl
TTITLE11=The Same Thing
TTITLE12=You Can't Lose What You Ain't Never Had
TTITLE13=Short Dress Woman
TTITLE14=Making Friends
TTITLE15=Black Night (hornless alt. mix)
TTITLE16=Bird Nest On The Ground
TTITLE17=Country Boy (live)
TTITLE18=Sugar Sweet (alt. "Fathers And Sons" take)
TTITLE19=All Aboard (alt. "Fathers And Sons" take)
TTITLE20=Going Down Slow (live)
TTITLE21=Who's Gonna Be Your Sweet Man When I'm Gone (original hornless London mix)
TTITLE22=Can't Get No Grindin' (What's The Matter With The Meal)
EXTD=1960 to 1972 YEAR: 1989
EXTT0=live 1960
EXTT1=1962
EXTT2=1962
EXTT3=1963 Previously unreleased on US album
EXTT4=Alternate take 1963 Previously unreleased
EXTT5=1963 Previously unreleased in US
EXTT6=1963 Previously unreleased in US
EXTT7=Alternate take 1963 Previously unreleased
EXTT8=1963 Previously unreleased in US
EXTT9=1963
EXTT10=1963
EXTT11=1964
EXTT12=1964
EXTT13=1964 Previously unreleased on US album
EXTT14=1966
EXTT15=Hornless alternate mix 1966 Previously unreleased
EXTT16=1967
EXTT17=live 1968 Previously unreleased
EXTT18=Alternate "Fathers and Sons" take 1969 Previously unreleased
EXTT19=Alternate "Fathers and Sons" take 1969 Previously unreleased
EXTT20=Live 1971 Previously unreleased
EXTT21=Original hornless London mix 1971 Previously unreleased
EXTT22=1972
PLAYORDER=
